<svg width="17" height="18" viewBox="0 0 17 18" fill="none" xmlns="http://www.w3.org/2000/svg">
<path d="M16 12.5641C16 12.893 15.9075 13.1978 15.7593 13.466L11.0232 8.16698L15.708 4.06823C15.8902 4.35743 16 4.69715 16 5.06426V12.5641ZM8.50002 9.12913L15.0187 3.42543C14.7512 3.27898 14.45 3.18918 14.125 3.18918H2.87499C2.54965 3.18918 2.24832 3.27898 1.9819 3.42543L8.50002 9.12913ZM10.3174 8.78406L8.80848 10.1052C8.72022 10.182 8.61032 10.2204 8.50002 10.2204C8.38965 10.2204 8.27975 10.182 8.19149 10.1052L6.68225 8.784L1.88622 14.1508C2.1737 14.3311 2.5106 14.4392 2.87496 14.4392H14.125C14.4893 14.4392 14.8264 14.3311 15.1138 14.1508L10.3174 8.78406ZM1.29208 4.0682C1.10987 4.3574 1 4.69712 1 5.06426V12.5642C1 12.893 1.09206 13.1978 1.24079 13.466L5.97635 8.16609L1.29208 4.0682Z" fill="#1E293B"/>
</svg>
