<svg width="17" height="24" viewBox="0 0 17 24" fill="none" xmlns="http://www.w3.org/2000/svg">
<g clip-path="url(#clip0_35_113)">
<path d="M14.0788 7.42034C14.0183 7.19354 13.8954 6.95189 13.8045 6.74032C12.7167 4.1261 10.3399 3.18921 8.42078 3.18921C5.85165 3.18921 3.02206 4.91192 2.64429 8.46283V9.1883C2.64429 9.21858 2.65472 9.49055 2.66954 9.62659C2.88131 11.3189 4.21665 13.1174 5.21392 14.8097C6.28685 16.6228 7.40018 18.4063 8.50318 20.1892C9.18332 19.0257 9.86101 17.847 10.5256 16.7137C10.7068 16.3811 10.9171 16.0487 11.0984 15.7312C11.2193 15.5198 11.4502 15.3085 11.5557 15.1118C12.6285 13.1475 14.3555 11.168 14.3555 9.21854V8.41769C14.3555 8.20636 14.0936 7.46591 14.0788 7.42034ZM8.46781 11.0622C7.71262 11.0622 6.886 10.6846 6.47799 9.64173C6.41721 9.47572 6.42211 9.14305 6.42211 9.11257V8.64413C6.42211 7.31469 7.55092 6.71012 8.53295 6.71012C9.74192 6.71012 10.6769 7.67736 10.6769 8.88634C10.6769 10.0953 9.67678 11.0622 8.46781 11.0622Z" fill="#1E293B"/>
</g>
<defs>
<clipPath id="clip0_35_113">
<rect width="17" height="17" fill="white" transform="matrix(-1 0 0 1 17 3.18918)"/>
</clipPath>
</defs>
</svg>
