<svg width="14" height="14" viewBox="0 0 14 14" fill="none" xmlns="http://www.w3.org/2000/svg">
<path d="M11.4332 8.32136C10.9634 7.85753 10.3768 7.85753 9.90999 8.32136C9.55387 8.67448 9.19776 9.02759 8.84763 9.38669C8.75187 9.48544 8.67107 9.50638 8.55436 9.44055C8.32393 9.31487 8.07854 9.21312 7.85709 9.07547C6.82466 8.4261 5.95981 7.5912 5.19371 6.65156C4.81366 6.18474 4.4755 5.68499 4.23909 5.12241C4.19121 5.00869 4.20018 4.93388 4.29295 4.84111C4.64907 4.49698 4.9962 4.14387 5.34633 3.79075C5.83412 3.29999 5.83412 2.72543 5.34334 2.23167C5.06503 1.95038 4.78673 1.67507 4.50842 1.39378C4.22113 1.1065 3.93684 0.816233 3.64656 0.531948C3.17673 0.0740989 2.59019 0.074099 2.12335 0.53494C1.76424 0.888053 1.4201 1.25014 1.05501 1.59727C0.716847 1.91746 0.546272 2.30948 0.510361 2.76733C0.453502 3.51245 0.636048 4.21569 0.893408 4.90096C1.4201 6.3194 2.2221 7.57923 3.19469 8.73433C4.50842 10.2964 6.07652 11.5323 7.91096 12.424C8.7369 12.825 9.59277 13.1333 10.5235 13.1841C11.1639 13.22 11.7205 13.0585 12.1664 12.5587C12.4716 12.2176 12.8158 11.9064 13.139 11.5802C13.6178 11.0954 13.6208 10.5089 13.1449 10.0301C12.5764 9.4585 12.0048 8.88993 11.4332 8.32136Z" fill="#F97316"/>
</svg>
